<?xml version="1.0" encoding="UTF-8"?>
<svg id="Capa_2" data-name="Capa 2" xmlns="http://www.w3.org/2000/svg" viewBox="0 0 413.22 307.71">
  <defs>
    <style>
      .cls-1 {
        fill: #fff;
      }
    </style>
  </defs>
  <g id="Capa_1-2" data-name="Capa 1">
    <polygon class="cls-1" points="396 269.24 378.79 230.8 378.78 230.8 378.79 230.78 361.58 192.33 361.55 192.33 361.56 192.31 344.35 153.85 327.14 115.38 327.12 115.38 309.91 76.93 309.91 76.91 292.7 38.47 292.7 38.46 275.48 0 275.47 0 241.04 0 223.83 38.47 206.62 76.91 206.62 76.93 206.6 76.91 189.39 38.47 189.39 38.46 172.18 0 137.73 0 120.52 38.46 120.52 38.47 103.31 76.91 103.31 76.93 86.1 115.38 86.08 115.38 86.08 115.4 68.87 153.85 51.65 192.33 51.64 192.33 34.44 230.78 34.44 230.8 34.43 230.8 17.21 269.24 0 307.71 34.43 307.71 51.65 269.24 68.87 230.8 68.87 230.78 86.08 192.33 86.08 192.31 103.31 153.85 120.52 115.4 120.52 115.38 137.73 76.93 137.73 76.91 154.95 38.47 172.16 76.91 172.18 76.91 172.18 76.93 189.37 115.38 189.4 115.38 189.39 115.4 172.18 153.85 154.96 192.33 154.95 192.33 137.73 230.78 137.73 230.8 120.52 269.24 120.52 269.25 103.31 307.71 137.73 307.71 154.95 269.24 172.16 230.8 172.18 230.78 189.37 192.33 189.39 192.31 206.6 153.85 223.81 115.38 223.83 115.38 241.04 76.93 241.04 76.91 258.25 38.47 275.47 76.91 275.48 76.91 275.48 76.93 292.68 115.38 292.7 115.38 292.7 115.4 309.91 153.85 327.12 192.33 327.14 192.33 344.35 230.78 344.35 230.8 361.56 269.24 361.56 269.25 378.78 307.71 413.22 307.71 396 269.24"/>
  </g>
</svg>