<?xml version="1.0" encoding="UTF-8"?>
<svg id="Capa_2" data-name="Capa 2" xmlns="http://www.w3.org/2000/svg" viewBox="0 0 457.52 132.35">
  <defs>
    <style>
      .cls-1 {
        fill: #fff;
      }

      .cls-2 {
        fill: #1d1d1b;
        stroke: #fff;
        stroke-miterlimit: 10;
        stroke-width: 4px;
      }
    </style>
  </defs>
  <g id="Capa_1-2" data-name="Capa 1">
    <path class="cls-1" d="M4.75,56.34H.74V12.47h21.49c3.13,0,5.85.59,8.15,1.75,2.3,1.17,4.06,2.79,5.29,4.86,1.23,2.07,1.85,4.44,1.85,7.11,0,3.26-.89,6.04-2.66,8.33-1.78,2.3-4.33,3.89-7.68,4.76l10.53,17.04h-4.7l-10.28-16.54H4.75v16.54ZM4.75,35.84h17.48c3.47,0,6.21-.88,8.24-2.63,2.03-1.75,3.04-4.09,3.04-7.02s-1.01-5.34-3.04-7.11c-2.03-1.77-4.77-2.66-8.24-2.66H4.75v19.43Z"/>
    <path class="cls-1" d="M52.25,54.58c-2.97-1.67-5.33-3.93-7.08-6.77-1.75-2.84-2.63-5.93-2.63-9.27V12.47h4.01v26.07c0,2.55.69,4.94,2.07,7.18,1.38,2.24,3.25,4.02,5.61,5.36,2.36,1.34,4.94,2,7.74,2s5.38-.67,7.74-2c2.36-1.34,4.23-3.12,5.61-5.36,1.38-2.23,2.07-4.63,2.07-7.18V12.47h4.01v26.07c0,3.34-.88,6.43-2.63,9.27-1.75,2.84-4.12,5.1-7.08,6.77-2.97,1.67-6.2,2.51-9.71,2.51s-6.75-.83-9.71-2.51Z"/>
    <path class="cls-1" d="M86.4,56.34V12.47h21.43c4.76,0,8.43,1.06,11,3.2,2.57,2.13,3.85,5.16,3.85,9.09,0,4.97-1.92,8.33-5.77,10.09,1.92.84,3.36,2.05,4.32,3.63.96,1.59,1.44,3.61,1.44,6.08,0,3.84-1.24,6.77-3.73,8.77s-6.07,3.01-10.75,3.01h-21.81ZM90.41,33.02h17.42c3.59,0,6.3-.67,8.11-2,1.82-1.34,2.73-3.43,2.73-6.27s-.91-4.94-2.73-6.3c-1.82-1.36-4.52-2.04-8.11-2.04h-17.42v16.61ZM90.41,52.33h18.11c3.51,0,6.08-.6,7.71-1.82,1.63-1.21,2.44-3.2,2.44-5.95,0-2.59-.84-4.49-2.51-5.7-1.67-1.21-4.22-1.82-7.65-1.82h-18.11v15.29Z"/>
    <path class="cls-1" d="M160.59,52.39v3.95h-32.9V12.47h32.33v3.95h-28.39v19.36h22.25v4.01h-22.25v12.6h28.95ZM152.01,0l-5.95,9.53h-3.32l4.45-9.53h4.83Z"/>
    <path class="cls-1" d="M169.62,19.49v36.85h-4.01V12.47h3.51l28.89,36.78V12.47h4.01v43.87h-3.57l-28.83-36.85Z"/>
    <path class="cls-1" d="M74.22,114.99l-8.15,16.54h-4.45l21.74-43.87h2.82l21.75,43.87h-4.45l-8.15-16.54h-21.12ZM93.34,111.04l-8.52-17.23-8.58,17.23h17.11Z"/>
    <path class="cls-1" d="M116.96,131.53h-4.01v-43.87h21.49c3.13,0,5.85.59,8.15,1.75,2.3,1.17,4.06,2.79,5.29,4.86,1.23,2.07,1.85,4.44,1.85,7.11,0,3.26-.89,6.04-2.66,8.33-1.78,2.3-4.33,3.89-7.68,4.76l10.53,17.04h-4.7l-10.28-16.54h-17.98v16.54ZM116.96,111.04h17.48c3.47,0,6.21-.88,8.24-2.63,2.03-1.75,3.04-4.09,3.04-7.02s-1.01-5.34-3.04-7.11c-2.03-1.77-4.77-2.66-8.24-2.66h-17.48v19.43Z"/>
    <path class="cls-1" d="M154.75,131.53v-43.87h17.17c4.14,0,7.84.95,11.12,2.85,3.28,1.9,5.86,4.52,7.74,7.86,1.88,3.34,2.82,7.08,2.82,11.22s-.94,7.88-2.82,11.22c-1.88,3.34-4.47,5.96-7.77,7.86-3.3,1.9-7,2.85-11.09,2.85h-17.17ZM158.76,127.59h13.16c3.38,0,6.42-.79,9.12-2.38,2.69-1.59,4.79-3.75,6.3-6.49,1.5-2.74,2.26-5.77,2.26-9.12s-.75-6.38-2.26-9.12c-1.5-2.74-3.6-4.9-6.3-6.49-2.7-1.59-5.73-2.38-9.12-2.38h-13.16v35.97Z"/>
    <path class="cls-1" d="M209.26,129.31c-3.3-2.03-5.9-4.77-7.8-8.24-1.9-3.47-2.85-7.29-2.85-11.47s.95-8,2.85-11.47c1.9-3.47,4.5-6.2,7.8-8.21s6.96-3.01,10.97-3.01,7.73,1,11.03,3.01c3.3,2.01,5.9,4.74,7.8,8.21,1.9,3.47,2.85,7.29,2.85,11.47s-.95,8-2.85,11.47c-1.9,3.47-4.5,6.21-7.8,8.24-3.3,2.03-6.98,3.04-11.03,3.04s-7.67-1.01-10.97-3.04ZM229.22,125.83c2.7-1.67,4.81-3.93,6.36-6.77,1.55-2.84,2.32-5.99,2.32-9.46s-.77-6.62-2.32-9.46c-1.55-2.84-3.67-5.1-6.36-6.77-2.69-1.67-5.69-2.51-8.99-2.51s-6.3.83-8.99,2.48c-2.69,1.65-4.8,3.91-6.33,6.77-1.53,2.86-2.29,6.03-2.29,9.49s.76,6.63,2.29,9.49c1.52,2.86,3.63,5.12,6.33,6.77,2.69,1.65,5.69,2.48,8.99,2.48s6.3-.84,8.99-2.51Z"/>
    <path class="cls-1" d="M315.44,87.67v43.87h-3.95v-43.87h3.95Z"/>
    <path class="cls-1" d="M328.49,94.69v36.85h-4.01v-43.87h3.51l28.89,36.78v-36.78h4.01v43.87h-3.57l-28.83-36.85Z"/>
    <path class="cls-1" d="M376.55,129.31c-3.3-2.03-5.9-4.77-7.8-8.24-1.9-3.47-2.85-7.29-2.85-11.47s.95-8,2.85-11.47c1.9-3.47,4.5-6.2,7.8-8.21s6.96-3.01,10.97-3.01c3.38,0,6.57.73,9.56,2.19,2.99,1.46,5.52,3.49,7.61,6.08l-3.2,2.38c-1.67-2.09-3.73-3.73-6.17-4.92-2.44-1.19-5.04-1.79-7.8-1.79-3.3,0-6.3.83-8.99,2.48-2.69,1.65-4.8,3.91-6.33,6.77-1.53,2.86-2.29,6.03-2.29,9.49s.76,6.63,2.29,9.49c1.52,2.86,3.63,5.12,6.33,6.77,2.69,1.65,5.69,2.48,8.99,2.48s5.98-.74,8.55-2.22c2.57-1.48,4.65-3.52,6.24-6.11,1.59-2.59,2.49-5.47,2.69-8.65h-19.74v-4.01l23.94.06v2.32c0,4.14-.95,7.94-2.85,11.41-1.9,3.47-4.51,6.2-7.83,8.21s-6.99,3.01-11,3.01-7.67-1.01-10.97-3.04Z"/>
    <path class="cls-1" d="M424.87,129.31c-3.3-2.03-5.9-4.77-7.8-8.24-1.9-3.47-2.85-7.29-2.85-11.47s.95-8,2.85-11.47c1.9-3.47,4.5-6.2,7.8-8.21s6.96-3.01,10.97-3.01,7.73,1,11.03,3.01c3.3,2.01,5.9,4.74,7.8,8.21,1.9,3.47,2.85,7.29,2.85,11.47s-.95,8-2.85,11.47c-1.9,3.47-4.5,6.21-7.8,8.24-3.3,2.03-6.98,3.04-11.03,3.04s-7.67-1.01-10.97-3.04ZM444.83,125.83c2.7-1.67,4.81-3.93,6.36-6.77,1.55-2.84,2.32-5.99,2.32-9.46s-.77-6.62-2.32-9.46c-1.55-2.84-3.67-5.1-6.36-6.77-2.69-1.67-5.69-2.51-8.99-2.51s-6.3.83-8.99,2.48c-2.69,1.65-4.8,3.91-6.33,6.77-1.53,2.86-2.29,6.03-2.29,9.49s.76,6.63,2.29,9.49c1.52,2.86,3.63,5.12,6.33,6.77,2.69,1.65,5.69,2.48,8.99,2.48s6.3-.84,8.99-2.51Z"/>
    <polygon class="cls-1" points="56.39 126.02 53.94 120.55 53.94 120.55 53.94 120.55 51.49 115.07 51.48 115.07 51.48 115.07 49.03 109.59 46.58 104.12 46.58 104.12 44.13 98.64 44.13 98.64 41.68 93.16 41.68 93.16 39.23 87.69 39.23 87.69 34.32 87.69 31.87 93.16 29.42 98.64 29.42 98.64 29.42 98.64 26.97 93.16 26.97 93.16 24.52 87.69 19.61 87.69 17.16 93.16 17.16 93.16 14.71 98.64 14.71 98.64 12.26 104.12 12.26 104.12 12.26 104.12 9.81 109.59 7.36 115.07 7.35 115.07 4.9 120.55 4.9 120.55 4.9 120.55 2.45 126.02 0 131.5 4.9 131.5 7.36 126.02 9.81 120.55 9.81 120.55 12.26 115.07 12.26 115.07 14.71 109.59 17.16 104.12 17.16 104.12 19.61 98.64 19.61 98.64 22.06 93.16 24.51 98.64 24.52 98.64 24.52 98.64 26.97 104.12 26.97 104.12 26.97 104.12 24.52 109.59 22.07 115.07 22.06 115.07 19.61 120.55 19.61 120.55 17.16 126.02 17.16 126.03 14.71 131.5 19.61 131.5 22.06 126.02 24.51 120.55 24.52 120.55 26.97 115.07 26.97 115.07 29.42 109.59 31.87 104.12 31.87 104.12 34.32 98.64 34.32 98.64 36.77 93.16 39.23 98.64 39.23 98.64 39.23 98.64 41.68 104.12 41.68 104.12 41.68 104.12 44.13 109.59 46.58 115.07 46.58 115.07 49.03 120.55 49.03 120.55 51.48 126.02 51.48 126.03 53.94 131.5 58.84 131.5 56.39 126.02"/>
    <polygon class="cls-1" points="301.83 126.02 299.38 120.55 299.38 120.55 299.38 120.55 296.93 115.07 296.93 115.07 296.93 115.07 294.48 109.59 292.03 104.12 292.02 104.12 289.57 98.64 289.57 98.64 287.12 93.16 287.12 93.16 284.67 87.69 284.67 87.69 279.77 87.69 277.32 93.16 274.87 98.64 274.87 98.64 274.86 98.64 272.41 93.16 272.41 93.16 269.96 87.69 265.06 87.69 262.61 93.16 262.61 93.16 260.15 98.64 260.15 98.64 257.7 104.12 257.7 104.12 257.7 104.12 255.25 109.59 252.8 115.07 252.8 115.07 250.35 120.55 250.35 120.55 250.35 120.55 247.9 126.02 245.44 131.5 250.35 131.5 252.8 126.02 255.25 120.55 255.25 120.55 257.7 115.07 257.7 115.07 260.15 109.59 262.61 104.12 262.61 104.12 265.06 98.64 265.06 98.64 267.51 93.16 269.96 98.64 269.96 98.64 269.96 98.64 272.41 104.12 272.41 104.12 272.41 104.12 269.96 109.59 267.51 115.07 267.51 115.07 265.06 120.55 265.06 120.55 262.61 126.02 262.61 126.03 260.15 131.5 265.06 131.5 267.51 126.02 269.96 120.55 269.96 120.55 272.41 115.07 272.41 115.07 274.86 109.59 277.31 104.12 277.32 104.12 279.77 98.64 279.77 98.64 282.22 93.16 284.67 98.64 284.67 98.64 284.67 98.64 287.12 104.12 287.12 104.12 287.12 104.12 289.57 109.59 292.02 115.07 292.03 115.07 294.48 120.55 294.48 120.55 296.93 126.02 296.93 126.03 299.38 131.5 304.28 131.5 301.83 126.02"/>
    <line class="cls-2" x1="457.52" y1="34.41" x2="214.55" y2="34.41"/>
  </g>
</svg>