<?xml version="1.0" encoding="UTF-8"?>
<svg id="Capa_2" data-name="Capa 2" xmlns="http://www.w3.org/2000/svg" viewBox="0 0 814.12 57.12">
  <defs>
    <style>
      .cls-1 {
        fill: #fff;
      }

      .cls-2 {
        fill: #1d1d1b;
        stroke: #fff;
        stroke-miterlimit: 10;
        stroke-width: 4px;
      }
    </style>
  </defs>
  <g id="Capa_1-2" data-name="Capa 1">
    <g>
      <path class="cls-1" d="M4.01,56.34H0V12.47h21.49c3.13,0,5.85.59,8.15,1.75,2.3,1.17,4.06,2.79,5.29,4.86,1.23,2.07,1.85,4.44,1.85,7.11,0,3.26-.89,6.04-2.66,8.33-1.78,2.3-4.33,3.89-7.68,4.76l10.53,17.04h-4.7l-10.28-16.54H4.01v16.54ZM4.01,35.84h17.48c3.47,0,6.21-.88,8.24-2.63,2.03-1.75,3.04-4.09,3.04-7.02s-1.01-5.34-3.04-7.11c-2.03-1.77-4.77-2.66-8.24-2.66H4.01v19.43Z"/>
      <path class="cls-1" d="M51.51,54.58c-2.97-1.67-5.33-3.93-7.08-6.77-1.75-2.84-2.63-5.93-2.63-9.27V12.47h4.01v26.07c0,2.55.69,4.94,2.07,7.18,1.38,2.24,3.25,4.02,5.61,5.36,2.36,1.34,4.94,2,7.74,2s5.38-.67,7.74-2c2.36-1.34,4.23-3.12,5.61-5.36,1.38-2.23,2.07-4.63,2.07-7.18V12.47h4.01v26.07c0,3.34-.88,6.43-2.63,9.27-1.75,2.84-4.12,5.1-7.08,6.77-2.97,1.67-6.2,2.51-9.71,2.51s-6.75-.83-9.71-2.51Z"/>
      <path class="cls-1" d="M85.66,56.34V12.47h21.43c4.76,0,8.43,1.06,11,3.2,2.57,2.13,3.85,5.16,3.85,9.09,0,4.97-1.92,8.33-5.77,10.09,1.92.84,3.36,2.05,4.32,3.63.96,1.59,1.44,3.61,1.44,6.08,0,3.84-1.24,6.77-3.73,8.77s-6.07,3.01-10.75,3.01h-21.81ZM89.67,33.02h17.42c3.59,0,6.3-.67,8.11-2,1.82-1.34,2.73-3.43,2.73-6.27s-.91-4.94-2.73-6.3c-1.82-1.36-4.52-2.04-8.11-2.04h-17.42v16.61ZM89.67,52.33h18.11c3.51,0,6.08-.6,7.71-1.82,1.63-1.21,2.44-3.2,2.44-5.95,0-2.59-.84-4.49-2.51-5.7-1.67-1.21-4.22-1.82-7.65-1.82h-18.11v15.29Z"/>
      <path class="cls-1" d="M159.86,52.39v3.95h-32.9V12.47h32.33v3.95h-28.39v19.36h22.25v4.01h-22.25v12.6h28.95ZM151.27,0l-5.95,9.53h-3.32l4.45-9.53h4.83Z"/>
      <path class="cls-1" d="M168.88,19.49v36.85h-4.01V12.47h3.51l28.89,36.78V12.47h4.01v43.87h-3.57l-28.83-36.85Z"/>
    </g>
    <g>
      <path class="cls-1" d="M430.82,39.76l-8.15,16.54h-4.45l21.74-43.87h2.82l21.75,43.87h-4.45l-8.15-16.54h-21.12ZM449.94,35.81l-8.52-17.23-8.58,17.23h17.11Z"/>
      <path class="cls-1" d="M473.56,56.3h-4.01V12.44h21.49c3.13,0,5.85.59,8.15,1.75,2.3,1.17,4.06,2.79,5.29,4.86,1.23,2.07,1.85,4.44,1.85,7.11,0,3.26-.89,6.04-2.66,8.33-1.78,2.3-4.33,3.89-7.68,4.76l10.53,17.04h-4.7l-10.28-16.54h-17.98v16.54ZM473.56,35.81h17.48c3.47,0,6.21-.88,8.24-2.63,2.03-1.75,3.04-4.09,3.04-7.02s-1.01-5.34-3.04-7.11c-2.03-1.77-4.77-2.66-8.24-2.66h-17.48v19.43Z"/>
      <path class="cls-1" d="M511.35,56.3V12.44h17.17c4.14,0,7.84.95,11.12,2.85,3.28,1.9,5.86,4.52,7.74,7.86,1.88,3.34,2.82,7.08,2.82,11.22s-.94,7.88-2.82,11.22c-1.88,3.34-4.47,5.96-7.77,7.86-3.3,1.9-7,2.85-11.09,2.85h-17.17ZM515.36,52.36h13.16c3.38,0,6.42-.79,9.12-2.38,2.69-1.59,4.79-3.75,6.3-6.49,1.5-2.74,2.26-5.77,2.26-9.12s-.75-6.38-2.26-9.12c-1.5-2.74-3.6-4.9-6.3-6.49-2.7-1.59-5.73-2.38-9.12-2.38h-13.16v35.97Z"/>
      <path class="cls-1" d="M565.86,54.08c-3.3-2.03-5.9-4.77-7.8-8.24-1.9-3.47-2.85-7.29-2.85-11.47s.95-8,2.85-11.47c1.9-3.47,4.5-6.2,7.8-8.21s6.96-3.01,10.97-3.01,7.73,1,11.03,3.01c3.3,2.01,5.9,4.74,7.8,8.21,1.9,3.47,2.85,7.29,2.85,11.47s-.95,8-2.85,11.47c-1.9,3.47-4.5,6.21-7.8,8.24-3.3,2.03-6.98,3.04-11.03,3.04s-7.67-1.01-10.97-3.04ZM585.82,50.6c2.7-1.67,4.81-3.93,6.36-6.77,1.55-2.84,2.32-5.99,2.32-9.46s-.77-6.62-2.32-9.46c-1.55-2.84-3.67-5.1-6.36-6.77-2.69-1.67-5.69-2.51-8.99-2.51s-6.3.83-8.99,2.48c-2.69,1.65-4.8,3.91-6.33,6.77-1.53,2.86-2.29,6.03-2.29,9.49s.76,6.63,2.29,9.49c1.52,2.86,3.63,5.12,6.33,6.77,2.69,1.65,5.69,2.48,8.99,2.48s6.3-.84,8.99-2.51Z"/>
      <path class="cls-1" d="M672.04,12.44v43.87h-3.95V12.44h3.95Z"/>
      <path class="cls-1" d="M685.09,19.46v36.85h-4.01V12.44h3.51l28.89,36.78V12.44h4.01v43.87h-3.57l-28.83-36.85Z"/>
      <path class="cls-1" d="M733.15,54.08c-3.3-2.03-5.9-4.77-7.8-8.24-1.9-3.47-2.85-7.29-2.85-11.47s.95-8,2.85-11.47c1.9-3.47,4.5-6.2,7.8-8.21s6.96-3.01,10.97-3.01c3.38,0,6.57.73,9.56,2.19,2.99,1.46,5.52,3.49,7.61,6.08l-3.2,2.38c-1.67-2.09-3.73-3.73-6.17-4.92-2.44-1.19-5.04-1.79-7.8-1.79-3.3,0-6.3.83-8.99,2.48-2.69,1.65-4.8,3.91-6.33,6.77-1.53,2.86-2.29,6.03-2.29,9.49s.76,6.63,2.29,9.49c1.52,2.86,3.63,5.12,6.33,6.77,2.69,1.65,5.69,2.48,8.99,2.48s5.98-.74,8.55-2.22c2.57-1.48,4.65-3.52,6.24-6.11,1.59-2.59,2.49-5.47,2.69-8.65h-19.74v-4.01l23.94.06v2.32c0,4.14-.95,7.94-2.85,11.41-1.9,3.47-4.51,6.2-7.83,8.21s-6.99,3.01-11,3.01-7.67-1.01-10.97-3.04Z"/>
      <path class="cls-1" d="M781.47,54.08c-3.3-2.03-5.9-4.77-7.8-8.24-1.9-3.47-2.85-7.29-2.85-11.47s.95-8,2.85-11.47c1.9-3.47,4.5-6.2,7.8-8.21s6.96-3.01,10.97-3.01,7.73,1,11.03,3.01c3.3,2.01,5.9,4.74,7.8,8.21,1.9,3.47,2.85,7.29,2.85,11.47s-.95,8-2.85,11.47c-1.9,3.47-4.5,6.21-7.8,8.24-3.3,2.03-6.98,3.04-11.03,3.04s-7.67-1.01-10.97-3.04ZM801.43,50.6c2.7-1.67,4.81-3.93,6.36-6.77,1.55-2.84,2.32-5.99,2.32-9.46s-.77-6.62-2.32-9.46c-1.55-2.84-3.67-5.1-6.36-6.77-2.69-1.67-5.69-2.51-8.99-2.51s-6.3.83-8.99,2.48c-2.69,1.65-4.8,3.91-6.33,6.77-1.53,2.86-2.29,6.03-2.29,9.49s.76,6.63,2.29,9.49c1.52,2.86,3.63,5.12,6.33,6.77,2.69,1.65,5.69,2.48,8.99,2.48s6.3-.84,8.99-2.51Z"/>
      <polygon class="cls-1" points="412.99 50.8 410.54 45.32 410.54 45.32 410.54 45.32 408.09 39.84 408.08 39.84 408.09 39.84 405.63 34.37 403.18 28.89 403.18 28.89 400.73 23.41 400.73 23.41 398.28 17.94 398.28 17.93 395.83 12.46 395.83 12.46 390.92 12.46 388.47 17.94 386.02 23.41 386.02 23.41 386.02 23.41 383.57 17.94 383.57 17.93 381.12 12.46 376.21 12.46 373.76 17.93 373.76 17.94 371.31 23.41 371.31 23.41 368.86 28.89 368.86 28.89 368.86 28.89 366.41 34.37 363.96 39.84 363.95 39.84 361.51 45.32 361.51 45.32 361.5 45.32 359.05 50.8 356.6 56.27 361.5 56.27 363.96 50.8 366.41 45.32 366.41 45.32 368.86 39.84 368.86 39.84 371.31 34.37 373.76 28.89 373.76 28.89 376.21 23.41 376.21 23.41 378.66 17.94 381.12 23.41 381.12 23.41 381.12 23.41 383.57 28.89 383.57 28.89 383.57 28.89 381.12 34.37 378.67 39.84 378.66 39.84 376.21 45.32 376.21 45.32 373.76 50.8 373.76 50.8 371.31 56.27 376.21 56.27 378.66 50.8 381.12 45.32 381.12 45.32 383.57 39.84 383.57 39.84 386.02 34.37 388.47 28.89 388.47 28.89 390.92 23.41 390.92 23.41 393.38 17.94 395.83 23.41 395.83 23.41 395.83 23.41 398.28 28.89 398.28 28.89 398.28 28.89 400.73 34.37 403.18 39.84 403.18 39.84 405.63 45.32 405.63 45.32 408.09 50.8 408.09 50.8 410.54 56.27 415.44 56.27 412.99 50.8"/>
      <polygon class="cls-1" points="658.43 50.8 655.98 45.32 655.98 45.32 655.98 45.32 653.53 39.84 653.53 39.84 653.53 39.84 651.08 34.37 648.63 28.89 648.63 28.89 646.17 23.41 646.17 23.41 643.72 17.94 643.72 17.93 641.27 12.46 641.27 12.46 636.37 12.46 633.92 17.94 631.47 23.41 631.47 23.41 631.46 23.41 629.01 17.94 629.01 17.93 626.56 12.46 621.66 12.46 619.21 17.93 619.21 17.94 616.76 23.41 616.76 23.41 614.3 28.89 614.3 28.89 614.3 28.89 611.85 34.37 609.4 39.84 609.4 39.84 606.95 45.32 606.95 45.32 606.95 45.32 604.5 50.8 602.04 56.27 606.95 56.27 609.4 50.8 611.85 45.32 611.85 45.32 614.3 39.84 614.3 39.84 616.76 34.37 619.21 28.89 619.21 28.89 621.66 23.41 621.66 23.41 624.11 17.94 626.56 23.41 626.56 23.41 626.56 23.41 629.01 28.89 629.02 28.89 629.01 28.89 626.56 34.37 624.11 39.84 624.11 39.84 621.66 45.32 621.66 45.32 619.21 50.8 619.21 50.8 616.76 56.27 621.66 56.27 624.11 50.8 626.56 45.32 626.56 45.32 629.01 39.84 629.01 39.84 631.46 34.37 633.91 28.89 633.92 28.89 636.37 23.41 636.37 23.41 638.82 17.94 641.27 23.41 641.27 23.41 641.27 23.41 643.72 28.89 643.72 28.89 643.72 28.89 646.17 34.37 648.63 39.84 648.63 39.84 651.08 45.32 651.08 45.32 653.53 50.8 653.53 50.8 655.98 56.27 660.89 56.27 658.43 50.8"/>
    </g>
    <line class="cls-2" x1="342.18" y1="34.41" x2="215.7" y2="34.41"/>
  </g>
</svg>